PathFileType	4	(X/Y/Z)	Patient4_TMGait_0pt5_01_right_12.trc.trc
DataRate	CameraRate	NumFrames	NumMarkers	Units	OrigDataRate	OrigDataStartFrame	OrigNumFrames
79.096045197740	79.096045197740	7	33	mm	79.096045197740	106	       141
Frame#	Time	L.ASIS			Sacral			L.Shoulder			Chest			R.Shoulder			Neck			R.ASIS			R.Thigh.Superior			R.Thigh.Lateral			R.Thigh.Inferior			R.Patella			L.Thigh.Superior			L.Thigh.Lateral			L.Thigh.Inferior			L.Patella			L.Shank.Superior			L.Shank.Lateral			L.Shank.Inferior			R.Shank.Superior			R.Shank.Lateral			R.Shank.Inferior			R.Heel			R.Midfoot.Superior			R.Midfoot.Lateral			R.Toe			L.Heel			L.Midfoot.Lateral			L.Midfoot.Superior			L.Toe			L.Elbow			L.Wrist			R.Elbow			R.Wrist			
		X1	Y1	Z1	X2	Y2	Z2	X3	Y3	Z3	X4	Y4	Z4	X5	Y5	Z5	X6	Y6	Z6	X7	Y7	Z7	X8	Y8	Z8	X9	Y9	Z9	X10	Y10	Z10	X11	Y11	Z11	X12	Y12	Z12	X13	Y13	Z13	X14	Y14	Z14	X15	Y15	Z15	X16	Y16	Z16	X17	Y17	Z17	X18	Y18	Z18	X19	Y19	Z19	X20	Y20	Z20	X21	Y21	Z21	X22	Y22	Z22	X23	Y23	Z23	X24	Y24	Z24	X25	Y25	Z25	X26	Y26	Z26	X27	Y27	Z27	X28	Y28	Z28	X29	Y29	Z29	X30	Y30	Z30	X31	Y31	Z31	X32	Y32	Z32	X33	Y33	Z33	

106	16.837500000000	802.029931060303	963.028284390434	270.962812944704	578.599841079702	1011.105362123817	416.613172991534	759.041403099858	1437.772236683680	232.478032715283	850.520587990608	1372.769441466275	402.264323387393	753.683531193361	1447.355325604709	569.360361366409	748.140846912822	1502.945925256299	382.269617308322	798.516422728875	955.980143451939	546.290497271239	880.809398934896	784.230119766592	521.881281376475	840.755191784939	665.608645782050	599.479327161648	928.718148080088	625.339280937926	520.315286834961	959.842994802145	528.952606266257	545.383215911248	828.868328175273	742.464318612574	308.251234369691	728.156777963263	635.235759665712	250.295563726534	798.569529401750	551.349771199932	318.937797876177	789.924474011351	484.088503110486	332.384634154146	763.155229856625	414.659921151126	325.825244711503	672.454615134414	301.282858913961	276.994501268487	716.148185289553	191.978104981907	354.718035365056	918.818024372406	440.977703417065	555.720890850588	831.982231011262	350.780205278516	618.344107473309	871.898257124012	246.829727308340	572.062307914031	727.955531927785	91.261000366438	544.038406200025	900.333775396871	131.810378985906	593.956135333431	804.181370305332	77.904194974169	625.379203654899	1010.207006785308	70.262735215158	633.498873174947	581.767769337446	38.643788168670	400.688800591968	655.953061993351	35.084029333381	320.063045425807	739.743784406680	95.535836180120	346.217412756261	867.889089950937	42.120663103130	318.767840972907	818.380996221994	1099.368892216167	89.764534346293	1048.183896695422	974.060358047910	86.069386454759	622.034423662381	1132.201569786151	686.122660183202	584.448530261747	878.411845348956	724.273937053980	
107	16.850142857143	801.854903286394	962.684783779983	271.993529657175	578.315171154767	1010.956718695192	416.100595165054	759.741849133938	1437.541773891952	232.938189989362	850.081473801348	1372.680315139371	403.344093283815	752.144472780603	1447.548000089352	569.729283606686	747.796347631214	1502.787510563112	382.583860127070	797.301005939847	955.701420451037	547.221771469849	878.335834529464	783.174455795002	523.165253530013	837.424010503016	664.824609096231	600.705790671861	925.125326798596	624.092686561491	521.540116164220	956.971954932494	529.895290562283	546.273376575182	826.989974502744	741.606072857137	308.993285398132	725.035477594293	635.314290115968	250.386348135370	794.166001678000	550.732045108180	319.114590893522	784.906773298521	483.699907882085	332.434403089348	757.945915273085	414.503779701641	325.852153044616	666.930406869635	301.433172051576	276.931180426976	710.191079238649	191.939135810640	354.640950721806	920.054333167867	441.642046923739	556.729447971625	838.460442164710	347.243134365741	620.022708782625	883.393864139108	245.416230333377	573.269863352145	747.266662693725	83.346242441160	545.953898792467	918.320578227457	130.850742136743	594.619954395746	824.815486840190	72.697811431124	626.529944872025	1031.144689872573	73.827830060841	632.714829741898	575.458346324003	38.777762408691	400.595682051267	649.625456090002	35.106877566904	320.060676304855	733.468713731301	95.502965029272	346.175400749642	861.576304162812	41.892394766080	318.771450549565	820.400233273382	1100.012008124674	89.455865078996	1053.765947634397	981.929000812832	86.608549125550	615.203108723803	1135.574313586185	686.844468938933	574.638663118279	882.387293030287	725.505647265855	
108	16.862785714286	801.764140750371	962.352617737343	273.166860176367	578.075009426372	1010.770699639230	415.709743217674	760.425431850826	1437.258347047736	233.515147486085	849.648073143840	1372.571423873630	404.522861475406	750.673013884871	1447.744256985543	570.204374337630	747.451683129148	1502.595868401769	382.995218524069	796.126983577172	955.381384900900	548.305941338841	875.829692601318	781.972865821973	524.632333493366	833.915262938840	663.897627026534	602.042226121095	921.434204682449	622.671117154114	522.947799299538	953.819216001817	530.619286657606	547.186463511623	825.023861614382	740.741774432077	309.897880985959	721.870256237117	635.418254942092	250.547295944664	789.674176763591	550.147772236709	319.389584810612	779.817333923070	483.333796143328	332.526829529870	752.647858901439	414.382042299599	325.916318898621	661.331762638716	301.616704439481	276.897082956448	704.198508099354	191.930401012771	354.574753081176	920.930648073715	442.326205029544	557.739047089346	844.675470643923	344.090666415218	621.701897443165	894.335761665243	244.582573520971	574.411277438977	765.954242713205	76.814402350606	547.841540929317	935.660527294675	130.473246299823	595.093736062687	844.778066962809	68.506328310986	627.487968775312	1051.078125736690	77.577930447515	631.495604519762	569.134084091104	38.918784614598	400.507286821133	643.290361224766	35.133390625038	320.058508740999	727.184135614501	95.479401816516	346.127179495015	855.249177747671	41.691552436918	318.774274785926	822.218775316184	1100.488082236375	89.450459560026	1058.622727707863	989.148488247608	87.422171718136	609.054601478803	1138.622541243052	687.412839361049	566.181891697868	885.870909827918	726.476519164018	
109	16.875428571429	801.773802180883	962.037172646705	274.456293537161	577.873483635187	1010.535203718166	415.457756099025	761.070750693088	1436.928324719331	234.218706206689	849.215317996669	1372.438136850157	405.797507333286	749.278269388014	1447.918589674149	570.795195520884	747.093843317263	1502.365492093182	383.518008029394	795.018239091690	955.025903734221	549.525825060073	873.369799093467	780.668263877211	526.268782059767	830.327206877309	662.845943448718	603.465001807097	917.754391474982	621.120072881926	524.520916947175	950.485900822465	531.137285716744	548.115031208043	822.979713838654	739.875006043129	310.945643357356	718.689580897795	635.537856787258	250.779080304362	785.147306266722	549.595330856315	319.757993722055	774.711215063290	482.980714731168	332.662545352442	747.306726838037	414.282084453015	326.021021656279	655.690388204279	301.833424683483	276.894607534912	698.190425079562	191.946583930835	354.520074844757	921.469046645650	443.007611841778	558.748246507775	850.497963722857	341.337069148411	623.331642469206	904.552864444662	244.264058667403	575.480875725252	783.672491682835	71.631070684533	549.628202143348	952.075359603690	130.572181314277	595.403792760610	863.694604944317	65.265880919697	628.239898274759	1069.713990043062	81.319815225027	629.958488601403	562.796905073637	39.070174384818	400.426496322772	636.949337661951	35.165213936096	320.057302124332	720.894654754852	95.465288207760	346.073387124688	848.910267112763	41.514744670510	318.776747412245	823.820866742004	1100.794292582213	89.757406491653	1062.779271935656	995.642317770288	88.494063131919	603.639658182799	1141.240853850341	687.833727610363	559.073662081017	888.766204155213	727.208130365885	
110	16.888071428571	801.883222733940	961.734919528383	275.836676941519	577.705484233503	1010.235348593840	415.365389436951	761.651923691925	1436.556308456039	235.057963540334	848.776483688362	1372.274774041831	407.164121700004	747.958462655196	1448.041970513542	571.508320825406	746.708472022606	1502.089667030482	384.166036996539	794.001619914509	954.637264194979	550.862278526030	871.035811047467	779.300405462620	528.054549194446	826.760114391946	661.683325294053	604.941614812452	914.190200549738	619.482400426895	526.229034358251	947.079956240791	531.464048650190	549.052051322041	820.882799167583	739.006040942425	312.108410745824	715.532314777988	635.659382125635	251.084598218873	780.653706214263	549.068982357538	320.213085074239	769.656793832922	482.626881403855	332.846330043909	741.983309552297	414.186131475851	326.171859387704	650.048782106122	302.080551895161	276.928670301280	692.192200476870	191.978279833280	354.479521996049	921.695342783253	443.645121428169	559.752844643360	855.784404194563	338.962968124127	624.855730719026	913.866368910897	244.351944180056	576.470216544980	800.066932299767	67.680124826299	551.224092270103	967.262693549943	131.009798025025	595.586345291008	881.169902991494	62.859904287867	628.778235426366	1086.743647242997	84.860172657685	628.266361395007	556.450685438232	39.234881627582	400.354780411337	630.604766066896	35.204151444325	320.058137065007	714.605113501461	95.460105150052	346.016003361785	842.562409925209	41.356665329271	318.779677230963	825.191214283359	1100.929778137269	90.379601588535	1066.263849146285	1001.345130753177	89.809187123488	598.993720918289	1143.338446944154	688.133632926243	553.317540678903	890.992332286192	727.721914510903	
111	16.900714285714	802.078093185694	961.434604348571	277.285402867620	577.568330829758	1009.854051345454	415.455904703747	762.139040384813	1436.144982880069	236.041425464510	848.323602419065	1372.075099510725	408.618772500512	746.702025051816	1448.083061222188	572.348154998396	746.280035418055	1501.760452664612	384.952836256542	793.105928231569	954.212577771300	552.295162886855	868.904122780734	777.902166013519	529.963512157496	823.310141884051	660.418284800683	606.432217933638	910.837278074854	617.796926278939	528.031781778309	943.709483490874	531.611840285694	549.990605404043	818.773182193740	738.130473287738	313.351398774412	712.445215989540	635.765655328363	251.468712043830	776.270803204023	548.558332601404	320.747144206690	764.729813655837	482.254011373041	333.086926337522	736.748506707666	414.071982278840	326.376182706748	644.456603340062	302.351714459145	277.006291381832	686.231712663849	192.012086372289	354.458050560511	921.636925561650	444.180056862845	560.742044482691	860.388528654562	336.916322874756	626.214718631978	922.096204099979	244.699900767923	577.362781771333	814.786615028372	64.777478434314	552.530122364414	980.906656842575	131.622585833225	595.676761117895	896.805553357976	61.128442578366	629.097479794449	1101.852722775118	88.010895631188	626.601243473822	550.100430818581	39.414242157173	400.292350836271	624.259546216949	35.251748604709	320.062290866186	708.319841687152	95.462555336869	345.958450469874	836.208278166062	41.211053244080	318.784064160601	826.315489860289	1100.896454252858	91.313061507263	1069.106012575228	1006.204802927503	91.354145649011	595.138433564882	1144.842587475604	688.355597940512	548.921878541420	892.484539704644	728.038876207522	
112	16.913357142857	802.336464671238	961.119184028109	278.783143895988	577.463439825299	1009.372816475484	415.753183004005	762.499679193473	1435.694918493543	237.177045190050	847.848354539276	1371.832457702635	410.158270005733	745.491242578260	1448.009869789563	573.318748696394	745.792383755907	1501.368386345720	385.892088090523	792.360822685677	953.742844346735	553.804380028437	867.043744906352	776.495830623311	531.964048313912	820.064058172813	659.053498549999	607.892137640128	907.779330059063	616.096094254348	529.882303929754	940.473819512600	531.583975275547	550.921670750849	816.703463372984	737.239052879485	314.636608543745	709.479711054614	635.836787767049	251.937788533596	772.078214521626	548.048164511956	321.352694375442	760.006772948508	481.839471753997	333.396482858177	731.677119525836	413.914125492036	326.642448152559	638.966217451331	302.636467647287	277.135865343810	680.335966425024	192.031024729129	354.462961822783	921.319638994606	444.538681482595	561.695620489222	864.173288259166	335.116594453146	627.349749696085	929.069455397856	245.133923634747	578.130830867864	827.498810711633	62.691446809784	553.448075454006	992.694402216633	132.228144316949	595.699326924923	910.222461249717	59.879793119878	629.190500134315	1114.737227127244	90.590363511392	625.133053290854	543.751295861347	39.606691032272	400.238490464065	617.916709370832	35.308737670002	320.071048188075	702.041862151046	95.470573388833	345.905504871991	829.850190066311	41.071679987206	318.790864213062	827.180343300000	1100.699206500284	92.546520408165	1071.334509351188	1010.183885518693	93.117127271399	592.082833662381	1145.701062054764	688.554290136682	545.896250341142	893.195709710653	728.179567514986	
